<svg width="133" height="14" viewBox="0 0 133 14" fill="none" xmlns="http://www.w3.org/2000/svg">
<path fill-rule="evenodd" clip-rule="evenodd" d="M11.2556 0.547406C11.2556 0.642107 11.02 0.825359 10.7319 0.954497C10.3279 1.1359 9.62591 1.1152 7.66196 0.864306C4.82592 0.5019 3.62436 0.582867 2.60159 1.20539C1.90788 1.62765 1.22708 2.53879 0.962745 3.39889C0.770221 4.02449 1.12738 3.98411 1.47704 3.34067C1.87625 2.60623 2.94626 2.01527 3.87683 2.01527H4.67024L3.79191 2.75566C2.55247 3.80045 1.88957 5.17853 1.88957 6.70973C1.88957 8.19031 2.07439 8.71075 2.94855 9.69138C4.3391 11.2511 6.80007 11.8648 8.56588 11.092C9.80199 10.5513 10.7715 9.71413 11.2648 8.762C11.8935 7.54831 11.741 7.35645 10.9168 8.32457C10.2156 9.14859 9.26313 9.80453 8.7684 9.80453C8.62395 9.80453 8.54986 8.56665 8.54986 6.15588V2.50722H9.26625C9.66025 2.50722 10.2303 2.37665 10.5327 2.21718C11.301 1.81234 12.0274 0.375427 11.4637 0.375427C11.3493 0.375427 11.2556 0.45291 11.2556 0.547406ZM124.363 0.939124C124.294 1.24926 124.202 1.61822 124.157 1.75905C124.009 2.23194 124.606 2.02101 125.027 1.45157C125.794 0.413759 125.798 0.375427 125.121 0.375427C124.6 0.375427 124.466 0.474843 124.363 0.939124ZM12.3029 0.722049C12.3065 0.813266 12.447 1.06703 12.6151 1.28575C12.8605 1.60531 12.9207 2.5023 12.9207 5.83631C12.9207 9.41527 12.8751 10.0142 12.5904 10.1712C12.3106 10.3254 12.3608 10.4365 12.9186 10.8987C13.2807 11.1988 13.64 11.4411 13.7172 11.437C13.7942 11.4329 14.1364 11.2052 14.4773 10.9307C14.9679 10.5359 15.0441 10.3789 14.8415 10.1794C14.6711 10.0116 14.5857 9.19471 14.5857 7.72767V5.52782L15.2316 5.07481C15.7629 4.70236 15.9101 4.67264 16.061 4.90714C16.1619 5.06415 16.2458 6.54595 16.2477 8.20015C16.2508 11.15 16.2402 11.2203 15.7043 11.8476C15.4037 12.1993 14.7716 12.6823 14.2993 12.9206C13.8273 13.1588 13.5503 13.3907 13.6841 13.4356C14.0036 13.5428 16.2194 12.4275 16.8461 11.8437C17.7169 11.033 17.9159 10.2139 17.9159 7.44028C17.9159 4.85712 17.7752 4.21205 17.106 3.72624C16.8417 3.53438 16.5832 3.64446 15.7351 4.31023L14.6898 5.13077L14.6286 3.43046C14.5755 1.94906 14.6259 1.65246 15.0212 1.12607L15.4745 0.521988L14.874 0.669779C14.5437 0.750952 14.1095 0.962901 13.9093 1.14062C13.5846 1.42862 13.5055 1.43046 13.1808 1.15579C12.6516 0.708111 12.2952 0.532032 12.3029 0.722049ZM32.5117 1.01005C32.0163 1.46469 31.5647 2.40678 31.7531 2.5925C31.8147 2.65317 31.9974 2.52506 32.1591 2.30778C32.4068 1.97509 32.7146 1.91278 34.1116 1.91278H35.7702L35.0653 2.58778C34.5935 3.03976 34.3171 3.5311 34.2288 4.07389C34.1056 4.83273 34.0519 4.885 33.3952 4.885C32.5862 4.885 31.8609 5.48129 31.8609 6.14665C31.8609 6.56153 31.884 6.56789 32.2415 6.24914C32.7211 5.82155 33.3992 5.81417 33.8234 6.23192C34.2255 6.62815 34.2532 7.34476 33.8662 7.34476C33.3686 7.34476 32.4851 8.17801 32.4919 8.64086C32.4982 9.06517 32.5127 9.06865 32.7873 8.71198C33.1825 8.1981 34.0263 8.33318 34.1114 8.92373C34.1545 9.22136 33.8981 9.67621 33.3605 10.2561C32.9117 10.7407 32.4322 11.3478 32.2952 11.6059C31.9795 12.1997 32.1951 12.9264 32.6591 12.8323C32.9205 12.7794 32.9908 12.5775 32.9457 12.0101C32.8936 11.355 32.9663 11.217 33.5078 10.9411C34.4122 10.4806 36.4729 10.5281 37.4774 11.033L38.2903 11.4413L39.2904 10.8335C39.8403 10.4992 40.8054 10.0974 41.435 9.94084C42.0838 9.77932 42.597 9.53273 42.6197 9.37161C42.6418 9.21501 42.6959 8.26636 42.74 7.26318L42.8206 5.43927L42.0236 5.13097C41.5855 4.96146 41.2269 4.75647 41.2269 4.6753C41.2269 4.59434 41.5541 4.30839 41.9539 4.04027C42.3537 3.77216 42.6815 3.48047 42.6824 3.39253C42.6853 3.07891 40.7018 0.597011 40.4418 0.588812C39.9523 0.573233 37.5887 1.74388 37.1683 2.21C36.8103 2.60705 36.7368 3.05493 36.6434 5.40934C36.5272 8.33256 36.3605 8.81755 35.2154 9.56634L34.7331 9.8816L35.1696 9.17688C35.5425 8.57444 35.6058 8.14501 35.6064 6.21594C35.6069 4.97519 35.6991 3.64466 35.8112 3.2593C36.055 2.42236 36.8813 1.52475 37.7246 1.18059C38.61 0.819415 38.1617 0.565239 37.0665 0.807731C36.4265 0.949373 35.8568 0.946093 35.2574 0.797482C33.9037 0.461724 33.0362 0.528958 32.5117 1.01005ZM84.2582 1.09778C83.9693 1.3825 83.6885 1.8437 83.6344 2.12268C83.5185 2.71999 83.6415 2.76837 84.0115 2.2715C84.227 1.98186 84.5981 1.91278 85.937 1.91278H87.5956L86.8907 2.58778C86.4188 3.03976 86.1424 3.5311 86.0542 4.07389C85.9314 4.83047 85.876 4.885 85.2287 4.885C84.4509 4.885 83.6862 5.52966 83.6862 6.18539C83.6862 6.56276 83.7104 6.56686 84.0669 6.24914C84.5465 5.82155 85.2246 5.81417 85.6487 6.23192C86.0692 6.64598 86.0725 7.34476 85.6541 7.34476C85.21 7.34476 84.3092 8.27087 84.3173 8.71916C84.3235 9.06988 84.3375 9.06947 84.6126 8.71198C85.0016 8.2063 85.8515 8.33236 85.9347 8.90815C85.9749 9.18528 85.6825 9.70327 85.1328 10.3289C83.9514 11.6731 83.7285 12.1889 84.1498 12.6035C84.642 13.0885 84.9704 12.7606 84.8141 11.94C84.6886 11.2818 84.7271 11.2185 85.4254 10.9311C86.5092 10.4851 88.3178 10.5379 89.3273 11.0451L90.1646 11.4659L91.0792 10.8692C91.5822 10.5412 92.4426 10.1583 92.9913 10.0185C93.5399 9.87873 94.1061 9.73033 94.249 9.68851C94.4305 9.63542 94.5092 9.08792 94.5092 7.87566C94.5092 6.92066 94.6029 6.08208 94.7173 6.01239C95.1168 5.76928 94.9188 5.53786 93.9897 5.16152C93.475 4.95305 93.0535 4.72532 93.0531 4.65521C93.0527 4.58511 93.3795 4.30839 93.7793 4.04027C94.1791 3.77216 94.5069 3.4735 94.5078 3.37655C94.5105 3.03689 92.5527 0.580408 92.2791 0.580408C92.1269 0.580408 91.4043 0.847497 90.6731 1.17403C88.756 2.03003 88.6003 2.34508 88.4687 5.63174C88.3674 8.16346 88.3253 8.38278 87.8443 8.88929C87.5607 9.18795 87.1637 9.51981 86.9623 9.62661C86.6365 9.79961 86.6422 9.74672 87.0135 9.14654C87.3602 8.58654 87.432 8.10709 87.4368 6.31986C87.4399 5.1361 87.5265 3.81131 87.6291 3.37593C87.8416 2.47381 88.6529 1.54648 89.55 1.18059C90.4289 0.82208 89.985 0.55827 88.9416 0.819005C88.3041 0.97848 87.8027 0.97602 87.1336 0.809986C85.6337 0.438151 84.8485 0.516659 84.2582 1.09778ZM105.585 0.992623C104.952 1.37245 104.855 1.37963 104.284 1.08896C103.612 0.746852 103.488 0.843603 103.979 1.32715C104.236 1.57989 104.292 2.36046 104.292 5.70738C104.292 8.20158 104.211 9.82954 104.083 9.90702C103.715 10.1311 103.86 10.424 104.447 10.6437C104.762 10.7616 105.178 10.999 105.371 11.1713C105.689 11.4552 105.793 11.4321 106.464 10.9278C106.872 10.6214 107.205 10.284 107.205 10.178C107.205 10.072 107.114 10.0411 107.002 10.1093C106.889 10.1776 106.608 10.1337 106.377 10.0118C105.977 9.80084 105.957 9.59422 105.957 5.72542C105.957 1.92344 105.984 1.6256 106.388 1.12053C106.917 0.457829 106.568 0.402075 105.585 0.992623ZM109.814 1.02194C109.271 1.44256 109.216 1.44727 108.661 1.12443C107.87 0.664245 107.685 0.698272 108.162 1.21667C108.515 1.60101 108.566 2.0575 108.63 5.42471C108.693 8.69169 108.655 9.2724 108.353 9.72582C108.162 10.0142 108.036 10.2717 108.073 10.2983C108.111 10.3248 108.58 10.5933 109.115 10.895L110.088 11.4438L110.728 10.9133C111.324 10.4193 111.641 9.81929 111.147 10.12C111.025 10.194 110.744 10.0929 110.522 9.89534C110.152 9.56511 110.119 9.2353 110.119 5.81889C110.119 2.57733 110.17 2.00461 110.513 1.34109C110.973 0.45209 110.706 0.330331 109.814 1.02194ZM40.5155 2.74623L41.4186 3.98964L40.3917 4.74479C39.8268 5.16008 39.3152 5.49994 39.255 5.49994C39.1949 5.49994 39.1456 5.07932 39.1456 4.56543C39.1456 3.99456 39.0646 3.68012 38.9374 3.75761C38.8148 3.83222 38.7293 5.04837 38.7293 6.71342V9.54236L37.5134 9.51981L36.2974 9.49706L37.1491 8.75236L38.0008 8.00767L38.1076 5.13241C38.199 2.67428 38.2726 2.19401 38.6152 1.82115C38.8356 1.58133 39.1501 1.4116 39.3141 1.44399C39.4782 1.47638 40.0189 2.06242 40.5155 2.74623ZM57.7985 2.08127C56.9635 2.85692 56.7855 3.85374 57.3506 4.58962C57.734 5.08854 57.8046 9.5895 57.4349 9.95355C57.2609 10.1249 57.4349 10.2469 58.1095 10.4258C58.6094 10.5584 59.2705 10.8434 59.5781 11.0592C60.1361 11.4505 60.1398 11.4501 60.9176 10.9303C61.3466 10.6437 61.9152 10.3553 62.1812 10.2895C62.6533 10.1729 62.6647 10.1124 62.6647 7.72582C62.6647 5.14963 62.4106 4.08455 61.7025 3.69427C61.3992 3.52721 61.1353 3.64343 60.3548 4.28686L59.3839 5.08731L59.132 4.48857C58.9936 4.15916 58.7014 3.73034 58.4831 3.53561C57.994 3.09982 57.9734 2.4773 58.4315 1.97899C59.0646 1.28985 58.5634 1.37081 57.7985 2.08127ZM92.1893 2.51194C92.6581 3.1234 93.0675 3.71333 93.0989 3.82299C93.1513 4.00522 91.3583 5.49994 91.0875 5.49994C91.0234 5.49994 90.9709 5.07932 90.9709 4.56543C90.9709 3.99456 90.89 3.68012 90.7628 3.75761C90.6402 3.83222 90.5547 5.04837 90.5547 6.71342V9.54236L89.3387 9.51981L88.1228 9.49706L88.9745 8.75216L89.8262 8.00747L89.9452 5.08383C90.0564 2.35656 90.0964 2.13457 90.5407 1.78016C90.8028 1.57128 91.0891 1.40033 91.1772 1.40033C91.2652 1.40033 91.7206 1.90048 92.1893 2.51194ZM119.225 2.91944C118.189 4.26145 118.029 4.68002 118.549 4.68002C118.984 4.68002 118.999 9.02663 118.567 9.84245C118.291 10.3633 118.305 10.4041 118.828 10.6064C119.132 10.7241 119.583 10.9659 119.829 11.1439C120.251 11.4485 120.32 11.4296 121.026 10.8198C121.736 10.2059 122.137 9.45873 121.459 10.0128C121.2 10.2241 121.068 10.2042 120.73 9.90354C120.363 9.57659 120.318 9.2681 120.318 7.10801V4.68002H121.061C121.712 4.68002 121.796 4.62324 121.737 4.21881C121.687 3.86706 121.513 3.74244 121.005 3.69406C120.366 3.63318 120.336 3.59034 120.276 2.63452L120.214 1.63831L119.225 2.91944ZM5.42784 5.15332C5.42784 7.52966 5.35666 8.38729 5.13438 8.68657C4.84507 9.07623 4.83466 9.07603 4.38468 8.67488C3.63872 8.01013 3.3465 7.23407 3.3465 5.91789C3.3465 4.49492 3.92158 3.06436 4.75245 2.42072C5.0403 2.1977 5.31004 2.01527 5.35188 2.01527C5.39371 2.01527 5.42784 3.42738 5.42784 5.15332ZM7.94252 2.42523C8.05158 2.42523 8.13359 4.05114 8.13359 6.21737V10.0095H7.33206C6.43938 10.0095 5.21971 9.65161 5.21971 9.38944C5.21971 9.29597 5.54107 8.95858 5.93403 8.63963C6.92828 7.83241 7.09292 7.25047 7.09292 4.54227C7.09292 2.4691 7.13371 2.19176 7.42218 2.30081C7.60326 2.36927 7.83741 2.42523 7.94252 2.42523ZM75.3022 2.48509C75.2412 2.64169 75.2749 2.89997 75.3769 3.05883C75.9164 3.89802 75.2812 4.18109 73.7408 3.78753C72.8117 3.55016 72.62 3.55242 72.4091 3.8027C72.2736 3.96341 71.8051 4.27457 71.3682 4.4941L70.5738 4.8934V6.29916C70.5738 7.67007 70.5894 7.71127 71.2026 7.96155C71.5485 8.10258 71.8798 8.29505 71.9389 8.38914C71.9978 8.48323 71.6213 9.13527 71.1018 9.83835C70.5825 10.5412 70.1575 11.1902 70.1575 11.2804C70.1575 11.5003 70.5207 11.4897 70.6612 11.2658C70.8945 10.894 72.0536 10.8417 72.8766 11.166C73.6242 11.4608 73.7476 11.4624 74.0675 11.1824C74.2638 11.0108 74.7756 10.7274 75.2048 10.5529L75.9853 10.2354V8.69169V7.14819L75.1527 6.72982C74.6948 6.49983 74.3202 6.26821 74.3202 6.21512C74.3202 6.16223 74.7467 5.50547 75.2678 4.75565C75.9158 3.82361 76.1955 3.22404 76.1524 2.85938C76.0844 2.28318 75.4839 2.01876 75.3022 2.48509ZM21.0379 4.28051C19.8653 4.86819 19.5674 5.09715 19.8411 5.20087C20.1562 5.32017 20.2054 5.63113 20.2054 7.50424C20.2054 9.22156 20.1348 9.74652 19.8649 10.0403C19.5483 10.3848 19.5518 10.4203 19.9169 10.5453C20.1327 10.6193 20.7242 10.8538 21.2313 11.0668L22.1531 11.4538L23.2801 10.7167C23.8999 10.3114 24.3597 9.93285 24.3016 9.87566C24.2436 9.81847 23.9647 9.92116 23.6818 10.1036C23.206 10.4107 23.1111 10.409 22.4149 10.0821C21.782 9.78485 21.6623 9.62435 21.6623 9.07316C21.6623 8.51684 21.8748 8.23971 23.0672 7.24084C23.84 6.59372 24.499 5.99599 24.5318 5.91277C24.5841 5.78056 22.7456 3.41139 22.6395 3.47412C22.6172 3.48724 21.8964 3.85026 21.0379 4.28051ZM44.8499 4.18499C44.366 4.62037 44.1986 4.86593 44.4363 4.79132C45.0551 4.59741 45.1748 5.01537 45.1783 7.38146C45.1808 9.15167 45.1153 9.63542 44.8355 9.91091C44.5431 10.1989 44.535 10.2801 44.7835 10.4348C44.9452 10.5357 45.1515 10.6195 45.2418 10.6214C45.3323 10.623 45.6764 10.821 46.0063 11.0613L46.6061 11.4979L47.5642 10.7247C48.5386 9.93838 48.7022 9.57987 47.8918 10.007C47.5519 10.1862 47.3725 10.1842 47.1454 9.99865C46.7212 9.65202 46.7143 5.24822 47.1375 4.90242C47.3677 4.71425 47.5177 4.77636 47.8568 5.20108C48.2801 5.73095 48.2916 5.733 48.8082 5.3626C49.4634 4.89258 49.463 4.85056 48.7955 4.06918L48.2466 3.42697L47.6913 3.95111C47.0771 4.53059 46.7435 4.60499 46.4927 4.21881C45.9878 3.44153 45.6835 3.43517 44.8499 4.18499ZM51.9458 3.76498C51.6024 3.91995 51.1051 4.05073 50.8408 4.05585L50.3604 4.06508L51.0142 5.27323L51.6681 6.48139L51.0313 7.34722C50.3638 8.25488 50.052 9.30397 50.2605 9.94043C50.3284 10.1475 50.6071 10.5908 50.8797 10.9256L51.3755 11.5339L52.32 10.7718C52.8395 10.3524 53.3426 10.0116 53.4377 10.014C53.533 10.0165 53.7514 10.3114 53.9231 10.6695C54.0948 11.0276 54.3289 11.347 54.4434 11.3792C54.5579 11.4116 55.0262 11.109 55.4841 10.7073C55.942 10.3053 56.1641 10.0228 55.9778 10.0794C55.3228 10.2784 55.1719 9.77604 55.1719 7.39601C55.1719 5.70574 55.2593 4.90324 55.4914 4.4613L55.8106 3.85292L55.0122 3.97878C54.4907 4.06077 53.9379 3.99108 53.4186 3.77728C52.9813 3.59731 52.6114 3.45772 52.5968 3.46674C52.5823 3.47596 52.2892 3.61022 51.9458 3.76498ZM65.7867 4.28072C64.6037 4.86532 64.314 5.0869 64.5899 5.19554C64.9034 5.31894 64.9542 5.62928 64.9542 7.42348C64.9542 8.98174 64.872 9.62374 64.6291 9.96544C64.3298 10.3863 64.3339 10.4328 64.6811 10.5511C64.8886 10.6218 65.4731 10.8538 65.9801 11.0668L66.9019 11.4538L68.0289 10.7167C68.6488 10.3114 69.1085 9.93285 69.0505 9.87566C68.9924 9.81847 68.7135 9.92116 68.4306 10.1036C67.9548 10.4107 67.8599 10.409 67.1637 10.0821C66.5293 9.78424 66.4111 9.62497 66.4111 9.06947C66.4111 8.41046 66.4823 8.3342 69.1968 6.08926C69.3714 5.94475 68.1688 4.14256 67.6104 3.71169C67.4262 3.56964 66.8811 3.73977 65.7867 4.28072ZM96.9548 4.16101C96.0827 4.90406 96.008 5.05739 96.5385 5.01598C96.8626 4.99056 96.9092 5.24433 96.9619 7.31545C97.0041 8.98194 96.945 9.73402 96.7537 9.96216C96.5362 10.2219 96.5362 10.2977 96.7543 10.3699C96.9017 10.4187 97.2995 10.6884 97.6385 10.9694L98.2546 11.48L99.2422 10.624L100.23 9.76784L100.477 10.3639C100.923 11.4411 101.278 11.568 102.106 10.9463C102.904 10.3461 103.034 10.0394 102.47 10.0835C102.144 10.1089 102.1 9.84553 102.047 7.57865C102.013 6.07901 102.075 4.94301 102.2 4.79481C102.351 4.61545 102.235 4.3787 101.79 3.9589L101.169 3.37347L100.544 3.96382C100.124 4.36004 99.9869 4.62221 100.127 4.76057C100.243 4.87413 100.337 5.95684 100.337 7.16684C100.337 9.3546 100.334 9.36895 99.74 9.78526C99.1658 10.188 99.13 10.1899 98.8034 9.83446C98.3301 9.31934 98.3058 5.26934 98.7737 4.88684C99.1389 4.58819 99.0615 4.42523 98.3014 3.89269L97.7353 3.49605L96.9548 4.16101ZM113.97 4.1854C113.283 4.56338 112.627 4.91472 112.513 4.96576C112.39 5.02069 112.417 5.1363 112.578 5.24843C112.784 5.39089 112.835 5.99497 112.782 7.67253C112.743 8.90159 112.633 10.0685 112.538 10.2657C112.409 10.5312 112.453 10.6245 112.707 10.6245C112.896 10.6245 113.43 10.8157 113.895 11.0494L114.741 11.4743L115.884 10.7269C116.513 10.316 116.979 9.93285 116.921 9.87566C116.863 9.81847 116.581 9.92342 116.293 10.1089C115.813 10.4184 115.718 10.4195 115.13 10.12C114.582 9.84102 114.49 9.67929 114.49 8.99957C114.49 8.26923 114.599 8.11795 115.849 7.11929C116.705 6.43588 117.167 5.9265 117.096 5.74551C116.949 5.36691 115.457 3.46325 115.323 3.48273C115.265 3.49113 114.657 3.80721 113.97 4.1854ZM123.327 3.95726C122.832 4.34856 122.763 4.49574 122.972 4.70564C123.372 5.10802 123.328 9.35952 122.919 9.80494C122.636 10.1128 122.686 10.2081 123.44 10.8048L124.273 11.4645L125.001 10.9176C125.847 10.2823 125.913 10.0731 125.261 10.0958C124.804 10.1116 124.791 10.054 124.734 7.67581C124.686 5.71045 124.737 5.17218 124.996 4.89053C125.286 4.57527 125.281 4.51275 124.95 4.243C123.98 3.45075 123.968 3.4487 123.327 3.95726ZM127.028 4.01937C126.266 4.64702 126.185 4.85261 126.718 4.811C127.043 4.78558 127.088 5.04447 127.141 7.2187C127.189 9.20599 127.14 9.72069 126.872 10.0116C126.57 10.3403 126.595 10.4107 127.192 10.9057C127.89 11.4833 128.207 11.4388 128.919 10.6638C129.164 10.3979 129.217 10.2081 129.073 10.1202C128.937 10.0376 128.851 9.0873 128.851 7.67191C128.851 5.5969 128.895 5.31915 129.28 4.97662C129.608 4.68432 129.791 4.64599 130.06 4.81264C130.354 4.99446 130.43 5.49563 130.516 7.82278C130.61 10.3449 130.664 10.6579 131.075 11.0615L131.53 11.5083L132.257 10.9127C133.098 10.2233 133.179 10.0095 132.598 10.0095C132.204 10.0095 132.181 9.87279 132.181 7.48641C132.181 5.58521 132.257 4.86532 132.487 4.56543C132.935 3.98267 132.872 3.73772 132.386 4.17085C131.977 4.5353 131.951 4.53059 131.381 3.99272L130.796 3.4405L129.876 4.1608C128.824 4.98421 128.643 5.03484 128.643 4.50681C128.643 4.17925 128.046 3.43989 127.794 3.45567C127.746 3.45874 127.401 3.7123 127.028 4.01937ZM52.6743 4.98503C53.3486 5.21338 53.4073 5.30131 53.4656 6.17187L53.5285 7.11232L52.8587 6.86982C52.4418 6.71896 51.9662 6.28317 51.599 5.71599C50.7016 4.3295 50.7132 4.32151 52.6743 4.98503ZM67.3964 5.55713L68.0606 6.46786L67.6 6.8649C66.3601 7.93367 66.4111 7.96524 66.4111 6.12779C66.4111 5.20559 66.4833 4.49492 66.5716 4.54862C66.66 4.60233 67.0311 5.05616 67.3964 5.55713ZM22.6588 5.53766L23.328 6.39529L22.8595 6.88889C22.6016 7.16028 22.227 7.46939 22.0265 7.57578C21.6946 7.75206 21.6623 7.63256 21.6623 6.22455C21.6623 5.37511 21.736 4.68002 21.8259 4.68002C21.9158 4.68002 22.2907 5.066 22.6588 5.53766ZM60.7499 4.92599C60.9168 5.09039 60.9996 6.00214 60.9996 7.67806V10.1839L60.1692 9.84061L59.3387 9.49706L59.3366 7.56286C59.3348 5.85763 59.388 5.57271 59.787 5.15434C60.3057 4.61094 60.4058 4.58716 60.7499 4.92599ZM73.6727 5.12851C74.0288 5.15537 74.3202 5.23162 74.3202 5.29824C74.3202 5.36465 74.0272 5.81171 73.669 6.29137C73.2541 6.84687 72.908 7.12195 72.7153 7.04918C72.549 6.98625 72.3737 6.9348 72.3259 6.9348C72.278 6.9348 72.2389 6.4242 72.2389 5.80024C72.2389 4.75135 72.2686 4.68125 72.632 4.8727C72.8483 4.98667 73.3166 5.10187 73.6727 5.12851ZM115.414 5.68709L115.991 6.50721L115.397 7.02192C115.07 7.3052 114.732 7.5397 114.646 7.54318C114.56 7.54687 114.49 6.89852 114.49 6.10279C114.49 5.30705 114.568 4.70338 114.664 4.76139C114.759 4.81961 115.097 5.23613 115.414 5.68709ZM40.4814 6.01854C41.4465 6.41579 41.2648 6.72982 40.0699 6.72982C39.2977 6.72982 39.1456 6.66505 39.1456 6.33687C39.1456 6.12083 39.2627 5.8976 39.4057 5.84062C39.5489 5.78384 39.678 5.72993 39.6925 5.72111C39.7071 5.7123 40.0622 5.84615 40.4814 6.01854ZM92.3454 6.00809C93.2883 6.39611 93.08 6.72982 91.8953 6.72982C91.1231 6.72982 90.9709 6.66505 90.9709 6.33687C90.9709 6.01014 91.1354 5.83529 91.55 5.72111C91.5822 5.7123 91.9402 5.84144 92.3454 6.00809ZM53.5004 8.45207C53.4949 9.31504 53.4067 9.55937 52.9942 9.85475C52.508 10.203 52.4834 10.1981 52.0642 9.67334C51.781 9.31893 51.6336 8.83354 51.6336 8.25631C51.6336 6.8235 51.7283 6.71896 52.688 7.09018C53.4935 7.40175 53.5066 7.42409 53.5004 8.45207ZM41.1894 7.58603C41.1328 7.96565 40.9753 8.03842 40.1342 8.07244C39.2211 8.10955 39.1456 8.07552 39.1456 7.6262C39.1456 7.17832 39.229 7.13978 40.2008 7.13978C41.1661 7.13978 41.2502 7.1777 41.1894 7.58603ZM93.0148 7.58603C92.9582 7.96565 92.8006 8.03842 91.9596 8.07244C91.0465 8.10955 90.9709 8.07552 90.9709 7.6262C90.9709 7.17832 91.0544 7.13978 92.0262 7.13978C92.9915 7.13978 93.0756 7.1777 93.0148 7.58603ZM73.956 7.83508C74.2128 8.02714 74.3202 8.39406 74.3202 9.08074C74.3202 10.0464 74.3158 10.0526 73.7478 9.88652C73.4331 9.79428 72.8285 9.72869 72.4043 9.74078L71.6332 9.76251L72.4813 8.65602C72.948 8.04764 73.3886 7.55261 73.4606 7.5563C73.5328 7.55979 73.7557 7.68524 73.956 7.83508ZM41.1867 9.01617C41.2413 9.48045 41.1411 9.59565 40.5018 9.8035C39.5296 10.1194 39.1456 9.95724 39.1456 9.23017C39.1456 8.44612 39.2935 8.33953 40.2828 8.41128C41.0181 8.46457 41.1307 8.54 41.1867 9.01617ZM93.0121 9.01617C93.0666 9.48045 92.9665 9.59565 92.3271 9.8035C91.3549 10.1194 90.9709 9.95724 90.9709 9.23017C90.9709 8.44612 91.1189 8.33953 92.1082 8.41128C92.8435 8.46457 92.9561 8.54 93.0121 9.01617Z" fill="white"/>
</svg>
