<svg width="635" height="63" viewBox="0 0 635 63" fill="none" xmlns="http://www.w3.org/2000/svg">
<path fill-rule="evenodd" clip-rule="evenodd" d="M49.7127 0.827295C49.7127 1.28229 48.5807 2.16275 47.1967 2.7832C45.2557 3.65479 41.8827 3.55533 32.4467 2.34987C18.8207 0.608659 13.0477 0.997674 8.13371 3.98866C4.80071 6.01745 1.52971 10.3951 0.259706 14.5275C-0.665294 17.5333 1.05071 17.3393 2.73071 14.2478C4.64871 10.7191 9.78971 7.8798 14.2607 7.8798H18.0727L13.8527 11.4371C7.89771 16.4568 4.71271 23.078 4.71271 30.4348C4.71271 37.5484 5.60071 40.0489 9.80071 44.7604C16.4817 52.2541 28.3057 55.2027 36.7897 51.4899C42.7287 48.8918 47.3867 44.8697 49.7567 40.2951C52.7777 34.4638 52.0447 33.542 48.0847 38.1934C44.7157 42.1525 40.1397 45.304 37.7627 45.304C37.0687 45.304 36.7127 39.3565 36.7127 27.7737V10.2434H40.1547C42.0477 10.2434 44.7867 9.61608 46.2397 8.84987C49.9307 6.90479 53.4207 0.00100708 50.7127 0.00100708C50.1627 0.00100708 49.7127 0.37328 49.7127 0.827295ZM593.149 2.70934C592.817 4.19942 592.373 5.97214 592.161 6.64873C591.45 8.92078 594.316 7.90737 596.339 5.17146C600.025 0.185174 600.041 0.00100708 596.791 0.00100708C594.287 0.00100708 593.645 0.478658 593.149 2.70934ZM54.7447 1.66639C54.7617 2.10464 55.4367 3.32389 56.2447 4.37472C57.4237 5.9101 57.7127 10.2198 57.7127 26.2384C57.7127 43.4338 57.4937 46.3115 56.1257 47.0659C54.7817 47.8065 55.0227 48.3403 57.7027 50.5612C59.4427 52.003 61.1687 53.1671 61.5397 53.1474C61.9097 53.1277 63.5537 52.0335 65.1917 50.7148C67.5487 48.818 67.9147 48.0636 66.9417 47.1053C66.1227 46.2987 65.7127 42.3741 65.7127 35.3256V24.7562L68.8157 22.5796C71.3687 20.7902 72.0757 20.6474 72.8007 21.774C73.2857 22.5284 73.6887 29.6479 73.6977 37.5956C73.7127 51.7686 73.6617 52.1064 71.0867 55.12C69.6427 56.81 66.6057 59.1303 64.3367 60.2757C62.0687 61.4201 60.7377 62.534 61.3807 62.7496C62.9157 63.2647 73.5617 57.9062 76.5727 55.1013C80.7567 51.2062 81.7127 47.2708 81.7127 33.9448C81.7127 21.5337 81.0367 18.4344 77.8217 16.1003C76.5517 15.1785 75.3097 15.7074 71.2347 18.9062L66.2127 22.8485L65.9187 14.6792C65.6637 7.56169 65.9057 6.13661 67.8047 3.60752L69.9827 0.705174L67.0977 1.41525C65.5107 1.80525 63.4247 2.82358 62.4627 3.67745C60.9027 5.06116 60.5227 5.07002 58.9627 3.75033C56.4197 1.59942 54.7077 0.753431 54.7447 1.66639ZM151.84 3.0501C149.46 5.23449 147.29 9.76086 148.195 10.6531C148.491 10.9446 149.369 10.3291 150.146 9.28517C151.336 7.68676 152.815 7.38737 159.527 7.38737H167.496L164.109 10.6305C161.842 12.8021 160.514 15.1627 160.09 17.7706C159.498 21.4165 159.24 21.6677 156.085 21.6677C152.198 21.6677 148.713 24.5326 148.713 27.7294C148.713 29.7227 148.824 29.7533 150.542 28.2218C152.846 26.1674 156.104 26.132 158.142 28.1391C160.074 30.0428 160.207 33.4859 158.348 33.4859C155.957 33.4859 151.712 37.4893 151.745 39.7131C151.775 41.7517 151.845 41.7684 153.164 40.0548C155.063 37.5858 159.117 38.2348 159.526 41.0721C159.733 42.5021 158.501 44.6875 155.918 47.4737C153.762 49.8018 151.458 52.719 150.8 53.9589C149.283 56.812 150.319 60.3033 152.548 59.8512C153.804 59.5971 154.142 58.6271 153.925 55.901C153.675 52.7534 154.024 52.0906 156.626 50.765C160.971 48.5521 170.872 48.7806 175.698 51.2062L179.604 53.1681L184.409 50.248C187.051 48.6417 191.688 46.7114 194.713 45.959C197.83 45.1829 200.296 43.9981 200.405 43.224C200.511 42.4716 200.771 37.9137 200.983 33.0939L201.37 24.3307L197.541 22.8495C195.436 22.035 193.713 21.0502 193.713 20.6602C193.713 20.2712 195.285 18.8973 197.206 17.6091C199.127 16.3209 200.702 14.9195 200.706 14.497C200.72 12.9902 191.19 1.06563 189.941 1.02623C187.589 0.951386 176.233 6.57586 174.213 8.8154C172.493 10.7231 172.14 12.8749 171.691 24.1869C171.133 38.2318 170.332 40.562 164.83 44.1596L162.513 45.6743L164.61 42.2884C166.402 39.394 166.706 37.3307 166.709 28.0623C166.711 22.101 167.154 15.7084 167.693 13.8568C168.864 9.8357 172.834 5.52305 176.886 3.86949C181.14 2.13419 178.986 0.912977 173.724 2.07805C170.649 2.75858 167.912 2.74283 165.032 2.02881C158.528 0.415628 154.36 0.738659 151.84 3.0501ZM400.461 3.47161C399.073 4.83957 397.724 7.05548 397.464 8.39586C396.907 11.2657 397.498 11.4981 399.276 9.11086C400.311 7.71926 402.094 7.38737 408.527 7.38737H416.496L413.109 10.6305C410.842 12.8021 409.514 15.1627 409.09 17.7706C408.5 21.4057 408.234 21.6677 405.124 21.6677C401.387 21.6677 397.713 24.765 397.713 27.9156C397.713 29.7287 397.829 29.7484 399.542 28.2218C401.846 26.1674 405.104 26.132 407.142 28.1391C409.162 30.1285 409.178 33.4859 407.168 33.4859C405.034 33.4859 400.706 37.9354 400.745 40.0893C400.775 41.7743 400.842 41.7724 402.164 40.0548C404.033 37.6252 408.116 38.2309 408.516 40.9973C408.709 42.3288 407.304 44.8175 404.663 47.8233C398.987 54.2819 397.916 56.7598 399.94 58.7521C402.305 61.0823 403.883 59.5065 403.132 55.5642C402.529 52.4018 402.714 52.0975 406.069 50.7168C411.276 48.5737 419.966 48.8278 424.816 51.2643L428.839 53.2862L433.233 50.4193C435.65 48.8436 439.784 47.0039 442.42 46.3322C445.056 45.6606 447.776 44.9475 448.463 44.7466C449.335 44.4915 449.713 41.861 449.713 36.0366C449.713 31.4482 450.163 27.4192 450.713 27.0843C452.632 25.9163 451.681 24.8044 447.217 22.9962C444.744 21.9946 442.719 20.9005 442.717 20.5637C442.715 20.2268 444.285 18.8973 446.206 17.6091C448.127 16.3209 449.702 14.886 449.706 14.4202C449.719 12.7883 440.313 0.985856 438.998 0.985856C438.267 0.985856 434.795 2.26911 431.282 3.83798C422.071 7.9507 421.323 9.46442 420.691 25.2555C420.204 37.4193 420.002 38.4731 417.691 40.9067C416.328 42.3416 414.421 43.9361 413.453 44.4492C411.888 45.2804 411.915 45.0263 413.699 42.1427C415.365 39.4521 415.71 37.1485 415.733 28.5616C415.748 22.8741 416.164 16.509 416.657 14.4172C417.678 10.0829 421.576 5.62745 425.886 3.86949C430.109 2.14699 427.976 0.879492 422.963 2.13222C419.9 2.89843 417.491 2.88661 414.276 2.08889C407.07 0.302371 403.297 0.679568 400.461 3.47161ZM502.927 2.96639C499.887 4.79131 499.419 4.82578 496.677 3.42926C493.448 1.78555 492.854 2.2504 495.213 4.57366C496.446 5.78798 496.713 9.53828 496.713 25.6189C496.713 37.6025 496.325 45.4242 495.713 45.7965C493.945 46.8729 494.64 48.2803 497.461 49.336C498.973 49.9023 500.97 51.0428 501.899 51.871C503.429 53.235 503.925 53.1237 507.151 50.701C509.11 49.2287 510.713 47.6076 510.713 47.0984C510.713 46.5893 510.272 46.4406 509.734 46.7685C509.195 47.0965 507.845 46.8857 506.734 46.2997C504.81 45.2863 504.713 44.2936 504.713 25.7056C504.713 7.43858 504.847 6.0076 506.786 3.58093C509.329 0.396916 507.652 0.129037 502.927 2.96639ZM523.244 3.10722C520.636 5.12813 520.371 5.15078 517.705 3.59964C513.904 1.38866 513.018 1.55214 515.308 4.04283C517.006 5.88942 517.251 8.08267 517.559 24.2608C517.858 39.9573 517.678 42.7474 516.229 44.9259C515.307 46.3115 514.702 47.5485 514.883 47.6765C515.065 47.8036 517.317 49.0937 519.888 50.5434L524.563 53.1799L527.638 50.6311C530.503 48.2576 532.024 45.375 529.65 46.8197C529.065 47.1753 527.715 46.6897 526.65 45.7403C524.87 44.1537 524.713 42.5691 524.713 26.1546C524.713 10.5802 524.955 7.82858 526.605 4.64063C528.817 0.36934 527.534 -0.21566 523.244 3.10722ZM190.295 11.3918L194.634 17.3659L189.7 20.994C186.986 22.9893 184.528 24.6222 184.239 24.6222C183.95 24.6222 183.713 22.6013 183.713 20.1323C183.713 17.3895 183.324 15.8787 182.713 16.251C182.124 16.6095 181.713 22.4526 181.713 30.4525V44.0444L175.871 43.9361L170.029 43.8268L174.121 40.2488L178.213 36.6709L178.726 22.8564C179.165 11.0461 179.519 8.73858 181.165 6.94714C182.224 5.79487 183.735 4.97942 184.523 5.13502C185.311 5.29063 187.909 8.10631 190.295 11.3918ZM273.333 8.19692C269.321 11.9236 268.466 16.7129 271.181 20.2485C273.023 22.6456 273.362 44.2709 271.586 46.02C270.75 46.8434 271.586 47.4293 274.827 48.2891C277.229 48.9263 280.405 50.2952 281.883 51.3323C284.564 53.2124 284.582 53.2104 288.319 50.7128C290.38 49.336 293.112 47.9503 294.39 47.6342C296.658 47.0738 296.713 46.7833 296.713 35.3167C296.713 22.9391 295.492 17.8218 292.09 15.9467C290.633 15.144 289.365 15.7024 285.615 18.7939L280.95 22.6397L279.74 19.763C279.075 18.1803 277.671 16.12 276.622 15.1844C274.272 13.0906 274.173 10.0996 276.374 7.70548C279.416 4.39442 277.008 4.78343 273.333 8.19692ZM438.567 10.2661C440.819 13.2039 442.786 16.0383 442.937 16.5652C443.189 17.4407 434.574 24.6222 433.273 24.6222C432.965 24.6222 432.713 22.6013 432.713 20.1323C432.713 17.3895 432.324 15.8787 431.713 16.251C431.124 16.6095 430.713 22.4526 430.713 30.4525V44.0444L424.871 43.9361L419.029 43.8268L423.121 40.2478L427.213 36.6699L427.785 22.623C428.319 9.51957 428.511 8.45298 430.646 6.75017C431.905 5.74661 433.281 4.92525 433.704 4.92525C434.127 4.92525 436.315 7.32828 438.567 10.2661ZM568.463 12.224C563.487 18.6718 562.714 20.6828 565.213 20.6828C567.303 20.6828 567.376 41.5665 565.3 45.4862C563.974 47.9887 564.041 48.1847 566.556 49.1568C568.017 49.7221 570.181 50.8842 571.364 51.739C573.39 53.2025 573.725 53.1119 577.114 50.182C580.525 47.2324 582.451 43.6426 579.194 46.3046C577.951 47.32 577.316 47.2245 575.694 45.7797C573.932 44.2089 573.713 42.7267 573.713 32.3484V20.6828H577.283C580.412 20.6828 580.813 20.41 580.533 18.4669C580.289 16.7769 579.453 16.1781 577.013 15.9457C573.943 15.6532 573.801 15.4474 573.513 10.855L573.213 6.06866L568.463 12.224ZM21.7127 22.9568C21.7127 34.3742 21.3707 38.4948 20.3027 39.9327C18.9127 41.8049 18.8627 41.8039 16.7007 39.8765C13.1167 36.6827 11.7127 32.954 11.7127 26.6303C11.7127 19.7935 14.4757 12.9202 18.4677 9.82783C19.8507 8.75631 21.1467 7.8798 21.3477 7.8798C21.5487 7.8798 21.7127 14.6644 21.7127 22.9568ZM33.7947 9.84949C34.3187 9.84949 34.7127 17.6613 34.7127 28.0692V46.2889H30.8617C26.5727 46.2889 20.7127 44.5693 20.7127 43.3097C20.7127 42.8606 22.2567 41.2396 24.1447 39.7071C28.9217 35.8288 29.7127 33.0328 29.7127 20.021C29.7127 10.0602 29.9087 8.72775 31.2947 9.25169C32.1647 9.58063 33.2897 9.84949 33.7947 9.84949ZM357.431 10.1371C357.138 10.8895 357.3 12.1304 357.79 12.8937C360.382 16.9256 357.33 18.2857 349.929 16.3948C345.465 15.2543 344.544 15.2652 343.531 16.4677C342.88 17.2398 340.629 18.7348 338.53 19.7896L334.713 21.7081V28.4621C334.713 35.0488 334.788 35.2468 337.734 36.4493C339.396 37.1268 340.988 38.0516 341.272 38.5037C341.555 38.9557 339.746 42.0885 337.25 45.4665C334.755 48.8436 332.713 51.9616 332.713 52.3949C332.713 53.4517 334.458 53.4005 335.133 52.325C336.254 50.5385 341.823 50.2874 345.777 51.8454C349.369 53.2616 349.962 53.2695 351.499 51.9242C352.442 51.0999 354.901 49.7378 356.963 48.8997L360.713 47.3742V39.9573V32.5414L356.713 30.5313C354.513 29.4263 352.713 28.3134 352.713 28.0584C352.713 27.8043 354.762 24.6488 357.266 21.0462C360.379 16.5681 361.723 13.6874 361.516 11.9354C361.189 9.16699 358.304 7.89654 357.431 10.1371ZM96.7127 18.7634C91.0787 21.5869 89.6477 22.687 90.9627 23.1853C92.4767 23.7585 92.7127 25.2525 92.7127 34.2521C92.7127 42.5031 92.3737 45.0253 91.0767 46.4366C89.5557 48.0921 89.5727 48.2625 91.3267 48.8633C92.3637 49.2188 95.2057 50.3455 97.6417 51.3687L102.071 53.2281L107.486 49.6866C110.464 47.7396 112.673 45.9206 112.394 45.6458C112.115 45.371 110.775 45.8644 109.416 46.7409C107.13 48.2162 106.674 48.2084 103.329 46.6375C100.288 45.2095 99.7127 44.4384 99.7127 41.7901C99.7127 39.1172 100.734 37.7857 106.463 32.9865C110.176 29.8774 113.342 27.0056 113.5 26.6057C113.751 25.9705 104.918 14.5876 104.408 14.889C104.301 14.952 100.838 16.6962 96.7127 18.7634ZM211.12 18.3044C208.795 20.3962 207.991 21.5761 209.133 21.2176C212.106 20.2859 212.681 22.294 212.698 33.6621C212.71 42.1673 212.395 44.4915 211.051 45.8152C209.646 47.1989 209.607 47.5889 210.801 48.3324C211.578 48.817 212.569 49.2198 213.003 49.2287C213.438 49.2365 215.091 50.1879 216.676 51.3421L219.558 53.4399L224.161 49.725C228.843 45.9471 229.629 44.2246 225.735 46.2771C224.102 47.1378 223.24 47.128 222.149 46.2367C220.111 44.5713 220.078 23.4128 222.111 21.7514C223.217 20.8473 223.938 21.1457 225.567 23.1863C227.601 25.7321 227.656 25.742 230.138 23.9624C233.286 21.7041 233.284 21.5022 230.077 17.748L227.44 14.6624L224.772 17.1807C221.821 19.9649 220.218 20.3224 219.013 18.4669C216.587 14.7324 215.125 14.7018 211.12 18.3044ZM245.213 16.2865C243.563 17.031 241.174 17.6593 239.904 17.684L237.596 17.7283L240.737 23.533L243.879 29.3377L240.819 33.4977C237.612 37.8586 236.114 42.899 237.116 45.957C237.442 46.9517 238.781 49.0819 240.091 50.6902L242.473 53.6132L247.011 49.9515C249.507 47.9365 251.924 46.2987 252.381 46.3106C252.839 46.3224 253.888 47.7396 254.713 49.4601C255.538 51.1806 256.663 52.715 257.213 52.8696C257.763 53.0252 260.013 51.5716 262.213 49.6413C264.413 47.71 265.48 46.3529 264.585 46.6247C261.438 47.581 260.713 45.1671 260.713 33.7321C260.713 25.611 261.133 21.7553 262.248 19.632L263.782 16.709L259.946 17.3137C257.44 17.7076 254.784 17.3728 252.289 16.3456C250.188 15.4809 248.411 14.8102 248.341 14.8535C248.271 14.8978 246.863 15.5429 245.213 16.2865ZM311.713 18.7643C306.029 21.5731 304.637 22.6377 305.963 23.1597C307.469 23.7526 307.713 25.2437 307.713 33.864C307.713 41.3509 307.318 44.4354 306.151 46.0771C304.713 48.099 304.733 48.3226 306.401 48.8909C307.398 49.2306 310.206 50.3455 312.642 51.3687L317.071 53.2281L322.486 49.6866C325.464 47.7396 327.673 45.9206 327.394 45.6458C327.115 45.371 325.775 45.8644 324.416 46.7409C322.13 48.2162 321.674 48.2084 318.329 46.6375C315.281 45.2065 314.713 44.4413 314.713 41.7724C314.713 38.6061 315.055 38.2397 328.097 27.4537C328.936 26.7593 323.158 18.1006 320.475 16.0304C319.59 15.3479 316.971 16.1653 311.713 18.7643ZM461.463 18.1892C457.273 21.7593 456.914 22.4959 459.463 22.297C461.02 22.1749 461.244 23.3941 461.497 33.345C461.7 41.3518 461.416 44.9653 460.497 46.0614C459.452 47.3092 459.452 47.6736 460.5 48.0202C461.208 48.2546 463.119 49.5507 464.748 50.9009L467.708 53.3542L472.453 49.2415L477.198 45.1278L478.384 47.9917C480.528 53.1671 482.234 53.7767 486.211 50.7896C490.049 47.906 490.672 46.4327 487.963 46.6444C486.397 46.7665 486.183 45.501 485.931 34.6096C485.765 27.4044 486.063 21.9464 486.663 21.2343C487.389 20.3726 486.831 19.2351 484.695 17.2181L481.713 14.4054L478.706 17.2418C476.689 19.1455 476.031 20.4051 476.706 21.0699C477.26 21.6155 477.713 26.8174 477.713 32.631C477.713 43.1423 477.697 43.2112 474.845 45.2115C472.086 47.1467 471.914 47.1556 470.345 45.4478C468.071 42.9729 467.954 23.5143 470.202 21.6765C471.957 20.2416 471.585 19.4587 467.933 16.9L465.213 14.9943L461.463 18.1892ZM543.213 18.3064C539.913 20.1224 536.763 21.8105 536.213 22.0557C535.622 22.3196 535.751 22.8751 536.528 23.4138C537.515 24.0983 537.759 27.0006 537.504 35.0606C537.317 40.9658 536.79 46.5725 536.332 47.5199C535.715 48.7953 535.927 49.2434 537.146 49.2434C538.052 49.2434 540.621 50.1623 542.856 51.285L546.92 53.3266L552.41 49.7359C555.43 47.7612 557.673 45.9206 557.394 45.6458C557.115 45.371 555.757 45.8753 554.376 46.7665C552.071 48.2537 551.613 48.2586 548.789 46.8197C546.157 45.4793 545.713 44.7023 545.713 41.4365C545.713 37.9275 546.238 37.2007 552.243 32.4025C556.353 29.119 558.574 26.6717 558.235 25.8021C557.527 23.9831 550.357 14.8368 549.713 14.9303C549.438 14.9707 546.513 16.4893 543.213 18.3064ZM588.169 17.2103C585.794 19.0903 585.459 19.7974 586.463 20.8059C588.388 22.7392 588.177 43.1659 586.211 45.306C584.852 46.7852 585.09 47.2432 588.713 50.1101L592.718 53.2793L596.215 50.6518C600.28 47.5997 600.597 46.5942 597.463 46.7035C595.267 46.7793 595.206 46.5026 594.93 35.0764C594.702 25.6337 594.945 23.0474 596.188 21.6943C597.581 20.1796 597.56 19.8792 595.971 18.5831C591.307 14.7767 591.253 14.7668 588.169 17.2103ZM605.954 17.5087C602.29 20.5243 601.902 21.5121 604.463 21.3121C606.025 21.19 606.243 22.4339 606.496 32.8802C606.727 42.4283 606.489 44.9012 605.204 46.2987C603.752 47.8784 603.873 48.2162 606.743 50.5946C610.092 53.3699 611.618 53.1562 615.039 49.4325C616.213 48.1552 616.471 47.2432 615.778 46.8207C615.126 46.4238 614.713 41.8581 614.713 35.0577C614.713 25.0881 614.925 23.7536 616.772 22.1079C618.347 20.7035 619.227 20.5193 620.522 21.32C621.931 22.1936 622.296 24.6015 622.713 35.7825C623.165 47.9001 623.424 49.404 625.397 51.3431L627.581 53.4901L631.075 50.6281C635.118 47.3161 635.506 46.2889 632.713 46.2889C630.821 46.2889 630.713 45.632 630.713 34.1664C630.713 25.0319 631.075 21.5731 632.181 20.1323C634.332 17.3324 634.031 16.1555 631.696 18.2365C629.731 19.9875 629.605 19.9649 626.866 17.3806L624.054 14.7274L619.634 18.1882C614.58 22.1443 613.713 22.3876 613.713 19.8506C613.713 18.2768 610.844 14.7245 609.634 14.8003C609.403 14.8151 607.746 16.0334 605.954 17.5087ZM248.713 22.1483C251.953 23.2454 252.235 23.6679 252.515 27.8506L252.817 32.369L249.599 31.204C247.596 30.4791 245.311 28.3853 243.547 25.6603C239.235 18.9987 239.291 18.9603 248.713 22.1483ZM319.447 24.897L322.638 29.2727L320.425 31.1803C314.468 36.3153 314.713 36.467 314.713 27.6388C314.713 23.208 315.06 19.7935 315.484 20.0515C315.909 20.3096 317.692 22.49 319.447 24.897ZM104.501 24.8034L107.716 28.924L105.465 31.2956C104.226 32.5995 102.426 34.0846 101.463 34.5958C99.8677 35.4427 99.7127 34.8686 99.7127 28.1037C99.7127 24.0224 100.067 20.6828 100.499 20.6828C100.931 20.6828 102.732 22.5373 104.501 24.8034ZM287.513 21.8646C288.315 22.6545 288.713 27.0351 288.713 35.0872V47.127L284.723 45.4774L280.733 43.8268L280.723 34.5337C280.714 26.3408 280.97 24.9718 282.887 22.9618C285.379 20.3509 285.86 20.2367 287.513 21.8646ZM349.602 22.8377C351.313 22.9667 352.713 23.3331 352.713 23.6531C352.713 23.9722 351.305 26.1202 349.584 28.4247C347.591 31.0937 345.928 32.4153 345.002 32.0657C344.203 31.7634 343.361 31.5162 343.131 31.5162C342.901 31.5162 342.713 29.0629 342.713 26.065C342.713 21.0256 342.856 20.6887 344.602 21.6086C345.641 22.1562 347.891 22.7096 349.602 22.8377ZM550.153 25.5214L552.925 29.4618L550.069 31.9347C548.498 33.2958 546.876 34.4224 546.463 34.4392C546.05 34.4569 545.713 31.3418 545.713 27.5187C545.713 23.6955 546.088 20.7951 546.547 21.0738C547.005 21.3535 548.628 23.3547 550.153 25.5214ZM190.131 27.1139C194.768 29.0225 193.895 30.5313 188.154 30.5313C184.444 30.5313 183.713 30.2201 183.713 28.6434C183.713 27.6053 184.276 26.5328 184.963 26.259C185.651 25.9862 186.271 25.7272 186.341 25.6849C186.411 25.6425 188.117 26.2856 190.131 27.1139ZM439.317 27.0637C443.847 28.928 442.846 30.5313 437.154 30.5313C433.444 30.5313 432.713 30.2201 432.713 28.6434C432.713 27.0735 433.503 26.2334 435.495 25.6849C435.65 25.6425 437.37 26.263 439.317 27.0637ZM252.682 38.806C252.656 42.9522 252.232 44.1262 250.25 45.5453C247.914 47.2186 247.796 47.1949 245.782 44.6737C244.421 42.9709 243.713 40.6388 243.713 37.8655C243.713 30.9814 244.168 30.4791 248.779 32.2627C252.649 33.7596 252.712 33.867 252.682 38.806ZM193.533 34.645C193.261 36.469 192.504 36.8186 188.463 36.9821C184.076 37.1603 183.713 36.9968 183.713 34.8381C183.713 32.6862 184.114 32.501 188.783 32.501C193.421 32.501 193.825 32.6832 193.533 34.645ZM442.533 34.645C442.261 36.469 441.504 36.8186 437.463 36.9821C433.076 37.1603 432.713 36.9968 432.713 34.8381C432.713 32.6862 433.114 32.501 437.783 32.501C442.421 32.501 442.825 32.6832 442.533 34.645ZM350.963 35.8416C352.197 36.7644 352.713 38.5273 352.713 41.8265C352.713 46.4662 352.692 46.4957 349.963 45.698C348.451 45.2548 345.546 44.9396 343.508 44.9977L339.803 45.1021L343.878 39.7859C346.12 36.8629 348.237 34.4845 348.583 34.5022C348.93 34.519 350.001 35.1217 350.963 35.8416ZM193.52 41.5163C193.782 43.747 193.301 44.3005 190.229 45.2991C185.558 46.8168 183.713 46.0378 183.713 42.5445C183.713 38.7775 184.424 38.2653 189.177 38.61C192.71 38.8661 193.251 39.2285 193.52 41.5163ZM442.52 41.5163C442.782 43.747 442.301 44.3005 439.229 45.2991C434.558 46.8168 432.713 46.0378 432.713 42.5445C432.713 38.7775 433.424 38.2653 438.177 38.61C441.71 38.8661 442.251 39.2285 442.52 41.5163Z" fill="black"/>
</svg>
